<svg width="321" height="72" viewBox="0 0 321 72" fill="none" xmlns="http://www.w3.org/2000/svg">
<path d="M1.20001 0.5H0.700012V1V61.6C0.700012 64.5179 1.64306 66.9208 3.55319 68.7602C5.46018 70.5965 7.92454 71.5 10.9 71.5H54.6H55.1V71V59V58.5H54.6H15.5V41.7H51.6H52.1V41.2V29.2V28.7H51.6H15.5V13.5H54.6H55.1V13V1V0.5H54.6H1.20001ZM125.959 70.8187L101.06 6.82103C101.06 6.82077 101.06 6.8205 101.06 6.82024C100.264 4.74553 99.0914 3.1551 97.5247 2.08689C95.9582 1.01884 94.0377 0.5 91.793 0.5H85.593H85.2518L85.1274 0.81775L57.7274 70.8177L57.4603 71.5H58.193H72.593H72.9378L73.0603 71.1778L79.1377 55.2H104.646L110.625 71.1752L110.746 71.5H111.093H125.493H126.224L125.959 70.8187ZM132.059 0.5H131.559V1V71V71.5H132.059H145.859H146.359V71V46.4H162.759C164.914 46.4 166.69 47.0614 168.122 48.3692C169.566 49.6874 170.729 51.7283 171.581 54.5447L171.583 54.5521L176.883 71.1521L176.994 71.5H177.359H191.659H192.341L192.136 70.8499L186.536 53.0499L186.534 53.0419C185.462 49.8266 184.348 47.2867 183.186 45.4395C182.18 43.7441 180.729 42.2332 178.849 40.9015C182.301 39.5559 184.98 37.6624 186.856 35.2049C188.927 32.5123 189.959 29.3702 189.959 25.8V18.8C189.959 13.3353 188.04 8.89397 184.19 5.52471C180.412 2.15976 175.417 0.5 169.259 0.5H132.059ZM173.506 15.1536L173.511 15.1586L173.516 15.1635C174.599 16.1861 175.159 17.5786 175.159 19.4V25.9C175.159 28.1742 174.408 30.005 172.918 31.4351C171.434 32.7926 169.369 33.5 166.659 33.5H146.359V13.5H169.059C170.952 13.5 172.416 14.0639 173.506 15.1536ZM193.161 13V13.5H193.661H215.361V71V71.5H215.861H229.661H230.161V71V13.5H251.861H252.361V13V1V0.5H251.861H193.661H193.161V1V13ZM259.305 0.5H258.805V1V71V71.5H259.305H273.105H273.605V71V42.4H305.205V71V71.5H305.705H319.505H320.005V71V1V0.5H319.505H305.705H305.205V1V29.4H273.605V1V0.5H273.105H259.305ZM83.2132 42.6L91.9407 19.2026L100.575 42.6H83.2132Z" stroke="white"/>
</svg>
