<svg width="792" height="332" viewBox="0 0 792 332" fill="none" xmlns="http://www.w3.org/2000/svg">
<path d="M106 278.5L236 0H249.5L333.5 278.5H283L240.5 27.5L169.5 278.5H106Z" fill="#3864FF"/>
<path d="M385.88 286C380.16 286 375.54 284.313 372.02 280.94C368.647 277.42 366.96 272.873 366.96 267.3V132H479.82V154.22H392.7V196.02H473.22V218.46H392.7V263.78H479.82V286H385.88ZM547.171 287.76C531.918 287.76 519.891 283.36 511.091 274.56C502.291 265.76 497.891 253.733 497.891 238.48H523.191C523.191 246.693 525.318 253.22 529.571 258.06C533.971 262.753 539.984 265.1 547.611 265.1H572.031C579.218 265.1 585.011 263.56 589.411 260.48C593.811 257.253 596.011 253.073 596.011 247.94V238.26C596.011 234.3 594.471 231 591.391 228.36C588.311 225.72 583.911 223.887 578.191 222.86L538.151 216.04C525.684 213.987 516.078 209.88 509.331 203.72C502.731 197.56 499.431 189.713 499.431 180.18V168.08C499.431 160.6 501.411 154 505.371 148.28C509.478 142.56 515.198 138.16 522.531 135.08C529.864 131.853 538.371 130.24 548.051 130.24H572.911C582.004 130.24 589.998 132.147 596.891 135.96C603.931 139.627 609.358 144.907 613.171 151.8C616.984 158.693 618.891 166.613 618.891 175.56H593.811C593.811 168.813 591.831 163.387 587.871 159.28C584.058 155.027 579.071 152.9 572.911 152.9H548.051C541.158 152.9 535.584 154.44 531.331 157.52C527.224 160.453 525.171 164.487 525.171 169.62V177.54C525.171 181.647 526.638 185.093 529.571 187.88C532.504 190.52 536.758 192.28 542.331 193.16L582.371 200.2C594.984 202.4 604.664 206.507 611.411 212.52C618.304 218.387 621.751 225.94 621.751 235.18V249.48C621.751 256.96 619.698 263.633 615.591 269.5C611.484 275.22 605.691 279.693 598.211 282.92C590.731 286.147 582.151 287.76 572.471 287.76H547.171ZM695.558 287.76C684.704 287.76 675.171 285.413 666.958 280.72C658.744 275.88 652.364 269.133 647.818 260.48C643.271 251.68 640.998 241.56 640.998 230.12V187.88C640.998 176.44 643.271 166.393 647.818 157.74C652.511 148.94 659.038 142.193 667.398 137.5C675.758 132.66 685.438 130.24 696.438 130.24H719.758C730.171 130.24 739.411 132.513 747.478 137.06C755.544 141.46 761.778 147.767 766.178 155.98C770.578 164.047 772.778 173.433 772.778 184.14H747.478C747.478 174.753 744.911 167.2 739.778 161.48C734.644 155.76 727.971 152.9 719.758 152.9H696.438C687.491 152.9 680.304 156.2 674.878 162.8C669.451 169.4 666.738 178.053 666.738 188.76V229.24C666.738 240.093 669.378 248.82 674.658 255.42C679.938 261.873 686.904 265.1 695.558 265.1H719.318C727.824 265.1 734.718 261.873 739.998 255.42C745.278 248.967 747.918 240.607 747.918 230.34H773.218C773.218 241.78 770.944 251.827 766.398 260.48C761.998 269.133 755.691 275.88 747.478 280.72C739.411 285.413 730.024 287.76 719.318 287.76H695.558Z" fill="white"/>
<path d="M21.8844 74.6309C18.7256 72.2743 15.2282 65.4959 17.64 62.2632C20.1206 58.9381 27.5455 60.4518 30.7043 62.8084L36.828 67.3769L60.0245 59.1201C61.1827 58.7047 62.4716 58.9042 63.4598 59.6415L68.6968 63.5485C69.7036 64.2995 69.6775 65.8184 68.6468 66.5447L51.6061 78.4019L58.9951 83.9144L66.9542 81.571C67.5069 81.4083 68.1156 81.5173 68.5774 81.8619L72.4567 84.7559C73.1771 85.2934 73.3157 86.3025 72.7851 87.0137C72.6955 87.1338 72.5874 87.24 72.4702 87.3394L61.9742 95.3381L57.297 107.678C57.2444 107.825 57.1641 107.952 57.0745 108.072C56.537 108.793 55.5279 108.931 54.8167 108.401L50.9375 105.507C50.4757 105.162 50.1977 104.61 50.1962 104.034L50.1751 95.7368L42.7861 90.2243L36.2748 109.937C35.8722 111.132 34.4237 111.589 33.4169 110.838L28.1799 106.931C27.1917 106.194 26.6332 105.015 26.7015 103.787L28.008 79.1994L21.8844 74.6309Z" fill="white"/>
<path d="M238.17 65.4465L237.116 79.7284" stroke="#3864FF" stroke-width="4" stroke-linecap="round"/>
<path d="M236.086 93.6906L235.032 107.972" stroke="#3864FF" stroke-width="4" stroke-linecap="round"/>
<path d="M234.002 121.935L232.948 136.216" stroke="#3864FF" stroke-width="4" stroke-linecap="round"/>
<path d="M231.918 150.178L230.864 164.46" stroke="#3864FF" stroke-width="4" stroke-linecap="round"/>
<path d="M229.834 178.422L228.78 192.704" stroke="#3864FF" stroke-width="4" stroke-linecap="round"/>
<path d="M227.75 206.666L226.696 220.948" stroke="#3864FF" stroke-width="4" stroke-linecap="round"/>
<path d="M225.666 234.91L224.612 249.192" stroke="#3864FF" stroke-width="4" stroke-linecap="round"/>
<path d="M223.582 263.154L222.528 277.436" stroke="#3864FF" stroke-width="4" stroke-linecap="round"/>
<path d="M391 188.656C283.785 207.153 136.327 141.259 76 106C213.913 204.494 343.464 215.245 391 208.309V188.656Z" fill="white" stroke="white"/>
</svg>
