<svg width="767" height="281" viewBox="0 0 767 281" fill="none" xmlns="http://www.w3.org/2000/svg">
<path d="M92 278.5L222 0H235.5L319.5 278.5H269L226.5 27.5L155.5 278.5H92Z" fill="white"/>
<path d="M353 276.188V116.188H457.063V140.485H381.985V183.922H451.672V208.219H381.985V251.891H457.688V276.188H353ZM573.586 160.172C572.857 153.349 569.784 148.037 564.367 144.235C559.003 140.433 552.024 138.532 543.43 138.532C537.388 138.532 532.206 139.443 527.883 141.266C523.56 143.089 520.253 145.563 517.961 148.688C515.67 151.813 514.498 155.381 514.446 159.391C514.446 162.724 515.201 165.615 516.711 168.063C518.274 170.511 520.383 172.594 523.039 174.313C525.696 175.98 528.638 177.386 531.867 178.532C535.097 179.678 538.352 180.641 541.633 181.422L556.633 185.172C562.675 186.579 568.482 188.48 574.055 190.875C579.68 193.271 584.706 196.292 589.133 199.938C593.612 203.584 597.154 207.985 599.758 213.141C602.362 218.297 603.664 224.339 603.664 231.266C603.664 240.641 601.268 248.896 596.477 256.032C591.685 263.115 584.758 268.662 575.696 272.672C566.685 276.631 555.774 278.61 542.961 278.61C530.513 278.61 519.706 276.683 510.539 272.829C501.425 268.974 494.289 263.349 489.133 255.954C484.029 248.558 481.268 239.547 480.852 228.922H509.367C509.784 234.495 511.503 239.131 514.524 242.829C517.545 246.527 521.477 249.287 526.321 251.11C531.216 252.933 536.685 253.844 542.727 253.844C549.029 253.844 554.55 252.907 559.289 251.032C564.081 249.105 567.831 246.448 570.539 243.063C573.248 239.625 574.628 235.615 574.68 231.032C574.628 226.865 573.404 223.428 571.008 220.719C568.612 217.959 565.253 215.667 560.93 213.844C556.659 211.969 551.659 210.303 545.93 208.844L527.727 204.157C514.55 200.771 504.133 195.641 496.477 188.766C488.873 181.839 485.071 172.646 485.071 161.188C485.071 151.761 487.623 143.506 492.727 136.422C497.883 129.339 504.888 123.844 513.742 119.938C522.597 115.98 532.623 114 543.821 114C555.175 114 565.123 115.98 573.664 119.938C582.258 123.844 589.003 129.287 593.899 136.266C598.795 143.193 601.321 151.162 601.477 160.172H573.586ZM766.457 170.172H737.239C736.405 165.381 734.869 161.136 732.629 157.438C730.39 153.688 727.603 150.511 724.27 147.907C720.936 145.303 717.134 143.349 712.864 142.047C708.645 140.693 704.087 140.016 699.192 140.016C690.494 140.016 682.785 142.204 676.067 146.579C669.348 150.902 664.087 157.256 660.285 165.641C656.483 173.974 654.582 184.157 654.582 196.188C654.582 208.428 656.483 218.74 660.285 227.125C664.14 235.459 669.4 241.761 676.067 246.032C682.785 250.25 690.468 252.36 699.114 252.36C703.905 252.36 708.384 251.735 712.551 250.485C716.77 249.183 720.546 247.282 723.879 244.782C727.265 242.282 730.103 239.209 732.395 235.563C734.739 231.917 736.353 227.75 737.239 223.063L766.457 223.219C765.364 230.823 762.994 237.959 759.348 244.626C755.754 251.292 751.041 257.178 745.207 262.282C739.374 267.334 732.551 271.292 724.739 274.157C716.926 276.969 708.254 278.375 698.723 278.375C684.66 278.375 672.108 275.12 661.067 268.61C650.025 262.099 641.327 252.698 634.973 240.407C628.619 228.115 625.442 213.375 625.442 196.188C625.442 178.948 628.645 164.209 635.051 151.969C641.457 139.678 650.181 130.277 661.223 123.766C672.265 117.256 684.765 114 698.723 114C707.629 114 715.91 115.25 723.567 117.75C731.223 120.25 738.046 123.922 744.035 128.766C750.025 133.558 754.947 139.443 758.801 146.422C762.707 153.349 765.259 161.266 766.457 170.172Z" fill="#3864FF"/>
<path d="M5.04687 75.7243C1.88807 73.3677 -1.60933 66.5893 0.802466 63.3566C3.28307 60.0315 10.708 61.5452 13.8668 63.9018L19.9905 68.4703L43.187 60.2135C44.3452 59.7981 45.6341 59.9976 46.6223 60.7349L51.8593 64.6419C52.8661 65.3929 52.84 66.9118 51.8093 67.6381L34.7686 79.4953L42.1576 85.0078L50.1167 82.6644C50.6694 82.5017 51.2781 82.6107 51.7399 82.9553L55.6192 85.8493C56.3396 86.3868 56.4782 87.3959 55.9476 88.1071C55.858 88.2272 55.7499 88.3334 55.6327 88.4328L45.1367 96.4315L40.4595 108.771C40.4069 108.918 40.3266 109.045 40.237 109.165C39.6995 109.886 38.6904 110.024 37.9792 109.494L34.1 106.6C33.6382 106.255 33.3602 105.703 33.3587 105.127L33.3376 96.8302L25.9486 91.3177L19.4373 111.03C19.0347 112.225 17.5862 112.682 16.5794 111.931L11.3424 108.024C10.3542 107.287 9.79567 106.108 9.86397 104.88L11.1705 80.2928L5.04687 75.7243Z" fill="#3864FF"/>
<path d="M224.163 81L222.853 95.2642" stroke="white" stroke-width="3" stroke-linecap="round"/>
<path d="M221.755 107.217L220.445 121.481" stroke="white" stroke-width="3" stroke-linecap="round"/>
<path d="M219.348 133.434L218.038 147.698" stroke="white" stroke-width="3" stroke-linecap="round"/>
<path d="M216.94 159.651L215.63 173.915" stroke="white" stroke-width="3" stroke-linecap="round"/>
<path d="M214.532 185.867L213.223 200.132" stroke="white" stroke-width="3" stroke-linecap="round"/>
<path d="M212.125 212.084L210.815 226.348" stroke="white" stroke-width="3" stroke-linecap="round"/>
<path d="M209.718 238.301L208.408 252.565" stroke="white" stroke-width="3" stroke-linecap="round"/>
<path d="M207.31 264.518L206 278.782" stroke="white" stroke-width="3" stroke-linecap="round"/>
<path d="M376 189.656C268.785 208.153 121.327 142.259 61 107C198.913 205.494 328.464 216.245 376 209.309V189.656Z" fill="#3864FF" stroke="#3864FF"/>
</svg>
