<svg width="81" height="83" viewBox="0 0 81 83" fill="none" xmlns="http://www.w3.org/2000/svg">
<path d="M40.3901 6.23667C36.8638 6.23667 33.329 6.5658 29.3135 7.18468C23.0769 8.14914 16.7443 10.1169 12.7101 12.3438L11.8799 12.8022V31.7294V50.6567L12.1919 52.4216C12.557 54.4875 13.3598 57.0541 14.1398 58.6492C15.4754 61.3815 17.8053 64.2826 20.0343 65.9888C22.8264 68.1263 29.6484 71.8126 38.1689 75.7885C39.3104 76.3234 40.3887 76.7601 40.5654 76.7636C41.5599 76.7636 55.0567 69.906 59.0471 67.3458C64.5098 63.8412 67.8351 58.7902 68.9959 52.2335C69.2999 50.5179 69.3005 50.4703 69.3005 31.6583V12.8022L68.4703 12.3438C64.3483 10.0681 57.8326 8.06921 51.4155 7.11121C47.4343 6.51702 43.9165 6.22491 40.3901 6.23667ZM54.0961 12.6553C59.6486 12.6553 66.6059 12.8786 67.1384 13.2195C67.2521 13.29 67.2938 18.1682 67.2938 31.3762C67.2938 46.5766 67.2595 49.6881 67.087 51.0422C66.3101 57.0905 63.5155 61.8153 58.8304 65.0008C56.7497 66.4154 54.6681 67.5974 50.4135 69.7778C47.3978 71.3236 40.7779 74.4991 40.5835 74.4926C40.5493 74.4914 39.2442 73.9019 37.6842 73.182C34.2947 71.6174 27.2366 68.0293 25.3007 66.8862C21.6814 64.7486 19.5592 63.0178 17.9899 60.9243C15.9797 58.2419 14.9969 56.0056 14.2739 52.4669C13.9682 50.9693 13.9619 50.7378 13.9173 39.2488L13.8716 27.5554L15.089 26.4587C18.0297 23.8098 22.017 21.0375 25.5075 19.2143C32.1695 15.7355 39.0911 13.7878 48.1298 12.8486C49.3378 12.7252 51.5723 12.667 54.0961 12.6553ZM58.8726 28.9677C58.3081 28.9677 57.7628 29.0382 57.2717 29.1558C55.089 29.6847 53.3572 31.02 52.4873 32.8449C52.1022 33.6531 52.013 34.0233 51.9622 35.0178C51.7856 38.476 53.0025 40.3931 56.9673 42.9051C59.4142 44.4555 60.1546 45.4159 60.1634 47.0498C60.1678 47.879 60.1177 48.0742 59.7537 48.6025C59.1845 49.4312 58.4672 49.7851 57.2223 49.8509C55.9937 49.9155 54.7169 49.5394 53.3903 48.7142C52.9035 48.4145 52.4702 48.1676 52.428 48.1676C52.388 48.1676 52.3514 49.1321 52.3514 50.3117V52.4557L53.3843 52.9435C55.4347 53.918 57.7226 54.2259 59.7014 53.7945C62.2068 53.248 64.1031 51.4184 64.7303 48.9422C64.9937 47.9014 65.004 45.6398 64.7474 44.6565C64.1886 42.4966 62.9453 41.1684 59.337 38.8768C57.2933 37.5791 56.6389 36.7416 56.6389 35.4251C56.6389 34.6792 56.8601 34.1703 57.4221 33.6207C58.6534 32.4182 61.0987 32.5528 63.1109 33.9322C63.5657 34.2437 63.9765 34.5023 64.024 34.5023C64.0697 34.5023 64.1103 33.6066 64.1103 32.5123V30.5222L63.5714 30.1578C62.4391 29.3867 60.5671 28.9412 58.8726 28.9677ZM41.1625 29.1264C40.9756 29.1299 40.7847 29.1264 40.5901 29.1264C39.715 29.1851 38.6113 29.3086 38.1377 29.4261C36.9062 29.7317 35.3552 30.3747 34.9702 30.7409L34.6405 31.0524V47.7568C34.6405 56.9442 34.6862 64.5053 34.7359 64.5594C34.7874 64.6182 35.8625 64.6417 37.1227 64.6182L39.4141 64.5594L39.4484 59.2134L39.4827 53.868H41.5219C43.314 53.8739 43.6745 53.8092 44.4972 53.5448C47.7967 52.3722 49.9186 49.0516 50.5584 44.0576C50.7618 42.4696 50.6435 38.4572 50.355 37.1501C49.7967 34.6216 49.0127 33.0136 47.645 31.5913C45.9072 29.784 43.9628 29.0223 41.1585 29.0741L41.1625 29.1264ZM31.5981 29.3732L29.2105 29.432L26.823 29.4908L26.7538 39.2947L26.6847 49.0986L26.307 49.3866C26.0178 49.6099 25.6615 49.6922 24.785 49.7333C23.7939 49.7921 23.557 49.7333 23.0179 49.4571C22.5156 49.1926 22.3151 48.9634 21.9802 48.2734L21.5653 47.4194L21.4962 38.4536L21.427 29.4884H19.0749H16.7227V38.6676C16.7227 47.0527 16.7455 47.9261 16.9707 48.7712C17.731 51.607 19.3037 53.215 21.9115 53.8233C23.2125 54.129 26.2977 54.0232 27.9313 53.6235C28.6169 53.4531 29.7065 53.0475 30.3526 52.7166L31.5277 52.1154L31.5619 40.7628L31.5962 29.4102L31.5981 29.3732ZM41.6075 32.8155C43.0328 32.8208 44.0914 33.5955 44.7396 35.11C45.3093 36.4418 45.4994 37.9611 45.4911 41.1202C45.4854 44.2845 45.3586 45.2407 44.7313 46.954C44.3375 48.0289 43.1517 49.3008 42.3034 49.5576C41.628 49.7633 40.2606 49.7633 39.7254 49.5576L39.3448 49.4165V41.3805V33.3445L39.8637 33.1153C40.1488 32.986 40.8033 32.8567 41.3175 32.8214C41.4158 32.8155 41.5124 32.8214 41.6073 32.8214L41.6075 32.8155Z" fill="black"/>
</svg>
