<svg width="97" height="31" viewBox="0 0 97 31" fill="none" xmlns="http://www.w3.org/2000/svg">
<g clip-path="url(#clip0_464_4309)">
<path d="M60.1636 23.7046C54.5335 27.8397 46.373 30.0459 39.3469 30.0459C29.4953 30.0459 20.6263 26.4151 13.9166 20.3763C13.3894 19.9015 13.8618 19.2543 14.4944 19.6241C21.7355 23.8222 30.6888 26.3478 39.9374 26.3478C46.1748 26.3478 53.0363 25.0619 59.3454 22.3935C60.2985 21.99 61.0956 23.0154 60.1636 23.7046Z" fill="black"/>
<path d="M62.5041 21.0359C61.7871 20.1198 57.747 20.603 55.9335 20.8174C55.3811 20.8846 55.2967 20.4055 55.7943 20.0609C59.0121 17.8043 64.2922 18.4556 64.9079 19.2121C65.5237 19.9727 64.7477 25.2466 61.7239 27.7638C61.26 28.1504 60.8171 27.9445 61.0238 27.4318C61.7028 25.7425 63.2252 21.9562 62.5041 21.0359Z" fill="black"/>
<path d="M56.06 4.13015V1.93654C56.06 1.60456 56.3131 1.38184 56.6167 1.38184H66.4726C66.7889 1.38184 67.0419 1.60876 67.0419 1.93654V3.81498C67.0377 4.13015 66.772 4.54198 66.2997 5.19334L61.1925 12.4592C63.0903 12.4129 65.0935 12.6945 66.8142 13.661C67.2022 13.8795 67.3076 14.1989 67.3371 14.5141V16.8548C67.3371 17.1742 66.9829 17.5482 66.6117 17.3549C63.5795 15.7706 59.552 15.5983 56.1992 17.3717C55.8576 17.5566 55.4991 17.1868 55.4991 16.8674V14.6444C55.4991 14.2872 55.5034 13.6778 55.8618 13.1357L61.7787 4.68066H56.6294C56.3131 4.68066 56.06 4.45794 56.06 4.13015Z" fill="#221F1F"/>
<path d="M20.1076 17.8169H17.1091C16.8223 17.7959 16.5946 17.5816 16.5735 17.3084V1.97418C16.5735 1.66741 16.8307 1.42368 17.1513 1.42368H19.9473C20.2383 1.43628 20.4703 1.65901 20.4914 1.93636V3.94087H20.5462C21.2758 2.0036 22.6464 1.1001 24.4936 1.1001C26.3703 1.1001 27.5427 2.0036 28.3861 3.94087C29.1115 2.0036 30.7605 1.1001 32.5275 1.1001C33.7843 1.1001 35.1591 1.61698 35.9984 2.77682C36.9473 4.06694 36.7533 5.94117 36.7533 7.58428L36.749 17.2622C36.749 17.569 36.4918 17.8169 36.1713 17.8169H33.177C32.8776 17.7959 32.6372 17.5564 32.6372 17.2622V9.13494C32.6372 8.48778 32.6962 6.87409 32.5528 6.26055C32.3293 5.23098 31.6588 4.94102 30.79 4.94102C30.0646 4.94102 29.3055 5.42429 28.9976 6.19751C28.6898 6.97074 28.7193 8.26505 28.7193 9.13494V17.2622C28.7193 17.569 28.462 17.8169 28.1415 17.8169H25.1473C24.8436 17.7959 24.6074 17.5564 24.6074 17.2622L24.6032 9.13494C24.6032 7.42459 24.8858 4.9074 22.756 4.9074C20.601 4.9074 20.6854 7.36155 20.6854 9.13494V17.2622C20.6854 17.569 20.4281 17.8169 20.1076 17.8169Z" fill="#221F1F"/>
<path d="M75.5271 1.1001C79.9764 1.1001 82.3844 4.9074 82.3844 9.74848C82.3844 14.4257 79.7233 18.1363 75.5271 18.1363C71.158 18.1363 68.7794 14.329 68.7794 9.58459C68.7794 4.81075 71.1875 1.1001 75.5271 1.1001ZM75.5524 4.23083C73.3425 4.23083 73.2034 7.23129 73.2034 9.10132C73.2034 10.9756 73.1739 14.9762 75.5271 14.9762C77.8508 14.9762 77.9605 11.7488 77.9605 9.7821C77.9605 8.48778 77.9057 6.94133 77.5135 5.71425C77.1761 4.64686 76.5055 4.23083 75.5524 4.23083Z" fill="#221F1F"/>
<path d="M88.1537 17.8169H85.1678C84.8684 17.7959 84.628 17.5564 84.628 17.2622L84.6238 1.92375C84.6491 1.6422 84.8979 1.42368 85.2015 1.42368H87.9808C88.2422 1.43628 88.4573 1.61278 88.5163 1.85231V4.19721H88.5712C89.4104 2.10025 90.587 1.1001 92.6577 1.1001C94.0031 1.1001 95.3147 1.58337 96.1581 2.9071C96.9425 4.13417 96.9425 6.19751 96.9425 7.68093V17.3337C96.9088 17.6026 96.66 17.8169 96.3648 17.8169H93.3578C93.0837 17.7959 92.856 17.5942 92.8264 17.3337V9.00466C92.8264 7.32794 93.0204 4.87378 90.9497 4.87378C90.2201 4.87378 89.5496 5.36125 89.2164 6.10086C88.7947 7.03798 88.7399 7.97089 88.7399 9.00466V17.2622C88.7357 17.569 88.4742 17.8169 88.1537 17.8169Z" fill="#221F1F"/>
<path d="M48.2032 10.4924V9.84525C46.0355 9.84525 43.7455 10.3075 43.7455 12.8541C43.7455 14.1442 44.416 15.0183 45.5674 15.0183C46.4108 15.0183 47.1657 14.5014 47.6423 13.661C48.2327 12.6272 48.2032 11.6564 48.2032 10.4924ZM51.227 17.775C51.0288 17.9515 50.742 17.9641 50.5185 17.8465C49.5232 17.0228 49.3461 16.6404 48.7978 15.8546C47.1531 17.5271 45.9891 18.0272 43.8551 18.0272C41.3332 18.0272 39.3679 16.4765 39.3679 13.371C39.3679 10.9463 40.6879 9.29474 42.5646 8.4879C44.1925 7.7735 46.4656 7.64743 48.2032 7.44992V7.06331C48.2032 6.35311 48.258 5.51265 47.8405 4.89911C47.4736 4.3486 46.7735 4.12168 46.1578 4.12168C45.0149 4.12168 43.9943 4.7058 43.7455 5.91607C43.6949 6.18502 43.4967 6.44977 43.2268 6.46238L40.3168 6.1514C40.0722 6.09677 39.8023 5.89926 39.8698 5.52526C40.5403 2.01211 43.7244 0.953125 46.5753 0.953125C48.0345 0.953125 49.9407 1.33974 51.092 2.44075C52.5512 3.7981 52.412 5.6093 52.412 7.58019V12.2364C52.412 13.6357 52.994 14.2493 53.5423 15.0057C53.7363 15.2747 53.7785 15.5982 53.5338 15.7999C52.9223 16.3084 51.8343 17.2539 51.2354 17.7834L51.227 17.775Z" fill="#221F1F"/>
<path d="M8.89385 10.4924V9.84525C6.72615 9.84525 4.43616 10.3075 4.43616 12.8541C4.43616 14.1442 5.10671 15.0183 6.25803 15.0183C7.10149 15.0183 7.85639 14.5014 8.33295 13.661C8.92337 12.6272 8.89385 11.6564 8.89385 10.4924ZM11.9177 17.775C11.7194 17.9515 11.4327 17.9641 11.2091 17.8465C10.2139 17.0228 10.0367 16.6404 9.48849 15.8546C7.84374 17.5271 6.67976 18.0272 4.5458 18.0272C2.02386 18.0272 0.0585938 16.4765 0.0585938 13.371C0.0585938 10.9463 1.37861 9.29474 3.25531 8.4879C4.88319 7.7735 7.15632 7.64743 8.89385 7.44992V7.06331C8.89385 6.35311 8.94867 5.51265 8.53116 4.89911C8.16425 4.3486 7.46418 4.12168 6.84845 4.12168C5.70557 4.12168 4.68498 4.7058 4.43616 5.91607C4.38555 6.18502 4.18733 6.44977 3.91743 6.46238L1.00749 6.1514C0.762883 6.09677 0.492975 5.89926 0.560452 5.52526C1.231 2.01211 4.41507 0.953125 7.26597 0.953125C8.72515 0.953125 10.6314 1.33974 11.7827 2.44075C13.2419 3.7981 13.1027 5.6093 13.1027 7.58019V12.2364C13.1027 13.6357 13.6847 14.2493 14.233 15.0057C14.427 15.2747 14.4691 15.5982 14.2245 15.7999C13.613 16.3084 12.525 17.2539 11.9261 17.7834L11.9177 17.775Z" fill="#221F1F"/>
</g>
<defs>
<clipPath id="clip0_464_4309">
<rect width="97" height="29.173" fill="white" transform="translate(0 0.913574)"/>
</clipPath>
</defs>
</svg>
