<svg width="583" height="583" viewBox="0 0 583 583" fill="none" xmlns="http://www.w3.org/2000/svg">
<path d="M291.5 583C237.453 583 184.469 567.974 138.469 539.6C92.468 511.226 55.2615 470.622 31.0053 422.323L200.327 337.288C208.817 354.193 221.839 368.404 237.939 378.335C254.039 388.266 272.583 393.525 291.5 393.525L291.5 583Z" fill="#E9D8A6"/>
<path d="M430.122 547.93C375.969 577.204 313.939 588.583 252.922 580.436L277.998 392.628C299.354 395.479 321.064 391.496 340.018 381.25L430.122 547.93Z" fill="#005F73"/>
<path d="M33.8269 427.797C6.50512 376.144 -4.66239 317.472 1.77344 259.394C8.20926 201.316 31.9513 146.513 69.919 102.095L213.947 225.208C200.658 240.755 192.348 259.936 190.096 280.263C187.843 300.59 191.752 321.125 201.314 339.204L33.8269 427.797Z" fill="#4A4E69"/>
<path d="M66.6789 105.953C92.0267 75.2399 123.399 50.0462 158.859 31.926C194.32 13.8059 233.117 3.1435 272.858 0.596737C312.598 -1.95003 352.439 3.67282 389.922 17.1184C427.406 30.564 461.737 51.5471 490.798 78.7733L361.254 217.046C351.083 207.516 339.067 200.172 325.948 195.466C312.829 190.76 298.884 188.792 284.975 189.684C271.066 190.575 257.487 194.307 245.076 200.649C232.664 206.991 221.684 215.809 212.813 226.559L66.6789 105.953Z" fill="#94D2BD"/>
<path d="M576.717 231.306C590.076 294.604 581.999 360.547 553.759 418.749C525.519 476.952 478.72 524.107 420.733 552.787L336.732 382.951C357.027 372.912 373.407 356.408 383.291 336.037C393.175 315.666 396.002 292.586 391.326 270.432L576.717 231.306Z" fill="#001219"/>
<path d="M576.717 231.306C562.162 162.338 523.109 100.98 466.79 58.5932L352.852 209.983C372.563 224.818 386.232 246.293 391.326 270.432L576.717 231.306Z" fill="#0A9396"/>
<path d="M238.614 120V116.932L250.136 104.318C251.489 102.841 252.602 101.557 253.477 100.466C254.352 99.3636 255 98.3295 255.42 97.3636C255.852 96.3864 256.068 95.3636 256.068 94.2955C256.068 93.0682 255.773 92.0057 255.182 91.108C254.602 90.2102 253.807 89.517 252.795 89.0284C251.784 88.5398 250.648 88.2955 249.386 88.2955C248.045 88.2955 246.875 88.5739 245.875 89.1307C244.886 89.6761 244.119 90.4432 243.574 91.4318C243.04 92.4205 242.773 93.5795 242.773 94.9091H238.75C238.75 92.8636 239.222 91.0682 240.165 89.5227C241.108 87.9773 242.392 86.7727 244.017 85.9091C245.653 85.0455 247.489 84.6136 249.523 84.6136C251.568 84.6136 253.381 85.0455 254.96 85.9091C256.54 86.7727 257.778 87.9375 258.676 89.4034C259.574 90.8693 260.023 92.5 260.023 94.2955C260.023 95.5795 259.79 96.8352 259.324 98.0625C258.869 99.2784 258.074 100.636 256.938 102.136C255.812 103.625 254.25 105.443 252.25 107.591L244.409 115.977V116.25H260.636V120H238.614ZM278.585 120.477C276.585 120.477 274.784 120.08 273.182 119.284C271.58 118.489 270.295 117.398 269.33 116.011C268.364 114.625 267.835 113.045 267.744 111.273H271.835C271.994 112.852 272.71 114.159 273.983 115.193C275.267 116.216 276.801 116.727 278.585 116.727C280.017 116.727 281.29 116.392 282.403 115.722C283.528 115.051 284.409 114.131 285.045 112.96C285.693 111.778 286.017 110.443 286.017 108.955C286.017 107.432 285.682 106.074 285.011 104.881C284.352 103.676 283.443 102.727 282.284 102.034C281.125 101.341 279.801 100.989 278.312 100.977C277.244 100.966 276.148 101.131 275.023 101.472C273.898 101.801 272.972 102.227 272.244 102.75L268.29 102.273L270.403 85.0909H288.54V88.8409H273.949L272.722 99.1364H272.926C273.642 98.5682 274.54 98.0966 275.619 97.7216C276.699 97.3466 277.824 97.1591 278.994 97.1591C281.131 97.1591 283.034 97.6705 284.705 98.6932C286.386 99.7045 287.705 101.091 288.659 102.852C289.625 104.614 290.108 106.625 290.108 108.886C290.108 111.114 289.608 113.102 288.608 114.852C287.619 116.591 286.256 117.966 284.517 118.977C282.778 119.977 280.801 120.477 278.585 120.477ZM310.214 114.818V113.361C310.214 112.353 310.421 111.431 310.835 110.594C311.258 109.749 311.87 109.074 312.67 108.57C313.48 108.058 314.461 107.801 315.612 107.801C316.782 107.801 317.762 108.058 318.554 108.57C319.346 109.074 319.944 109.749 320.349 110.594C320.754 111.431 320.956 112.353 320.956 113.361V114.818C320.956 115.826 320.749 116.752 320.335 117.598C319.93 118.435 319.328 119.109 318.527 119.622C317.735 120.126 316.764 120.378 315.612 120.378C314.443 120.378 313.458 120.126 312.657 119.622C311.856 119.109 311.249 118.435 310.835 117.598C310.421 116.752 310.214 115.826 310.214 114.818ZM312.967 113.361V114.818C312.967 115.655 313.165 116.406 313.561 117.072C313.957 117.728 314.641 118.057 315.612 118.057C316.557 118.057 317.223 117.728 317.609 117.072C318.005 116.406 318.203 115.655 318.203 114.818V113.361C318.203 112.524 318.014 111.777 317.636 111.121C317.259 110.455 316.584 110.122 315.612 110.122C314.668 110.122 313.988 110.455 313.575 111.121C313.17 111.777 312.967 112.524 312.967 113.361ZM296.45 99.0028V97.5455C296.45 96.5379 296.657 95.6158 297.071 94.7791C297.494 93.9335 298.106 93.2588 298.906 92.755C299.716 92.2422 300.696 91.9858 301.848 91.9858C303.018 91.9858 303.998 92.2422 304.79 92.755C305.581 93.2588 306.18 93.9335 306.585 94.7791C306.989 95.6158 307.192 96.5379 307.192 97.5455V99.0028C307.192 100.01 306.985 100.937 306.571 101.783C306.166 102.619 305.563 103.294 304.763 103.807C303.971 104.311 303 104.562 301.848 104.562C300.679 104.562 299.693 104.311 298.893 103.807C298.092 103.294 297.485 102.619 297.071 101.783C296.657 100.937 296.45 100.01 296.45 99.0028ZM299.203 97.5455V99.0028C299.203 99.8395 299.401 100.591 299.797 101.256C300.193 101.913 300.876 102.241 301.848 102.241C302.793 102.241 303.458 101.913 303.845 101.256C304.241 100.591 304.439 99.8395 304.439 99.0028V97.5455C304.439 96.7088 304.25 95.9621 303.872 95.3054C303.494 94.6397 302.82 94.3068 301.848 94.3068C300.903 94.3068 300.224 94.6397 299.81 95.3054C299.406 95.9621 299.203 96.7088 299.203 97.5455ZM297.476 120L316.476 92.3636H319.553L300.553 120H297.476Z" fill="white"/>
<path d="M78.8864 268.091V303H74.6591V272.523H74.4545L65.9318 278.182V273.886L74.6591 268.091H78.8864ZM100.04 267.614C101.472 267.625 102.903 267.898 104.335 268.432C105.767 268.966 107.074 269.852 108.256 271.091C109.438 272.318 110.386 273.994 111.102 276.119C111.818 278.244 112.176 280.909 112.176 284.114C112.176 287.216 111.881 289.972 111.29 292.381C110.71 294.778 109.869 296.801 108.767 298.449C107.676 300.097 106.347 301.347 104.778 302.199C103.222 303.051 101.46 303.477 99.4943 303.477C97.5398 303.477 95.7955 303.091 94.2614 302.318C92.7386 301.534 91.4886 300.449 90.5114 299.062C89.5455 297.665 88.9261 296.045 88.6534 294.205H92.8125C93.1875 295.807 93.9318 297.131 95.0455 298.176C96.1705 299.21 97.6534 299.727 99.4943 299.727C102.188 299.727 104.313 298.551 105.869 296.199C107.438 293.847 108.222 290.523 108.222 286.227H107.949C107.313 287.182 106.557 288.006 105.682 288.699C104.807 289.392 103.835 289.926 102.767 290.301C101.699 290.676 100.563 290.864 99.358 290.864C97.358 290.864 95.5227 290.369 93.8523 289.381C92.1932 288.381 90.8636 287.011 89.8636 285.273C88.875 283.523 88.3807 281.523 88.3807 279.273C88.3807 277.136 88.858 275.182 89.8125 273.409C90.7784 271.625 92.1307 270.205 93.8693 269.148C95.6193 268.091 97.6761 267.58 100.04 267.614ZM100.04 271.364C98.608 271.364 97.3182 271.722 96.1705 272.438C95.0341 273.142 94.1307 274.097 93.4602 275.301C92.8011 276.494 92.4716 277.818 92.4716 279.273C92.4716 280.727 92.7898 282.051 93.4261 283.244C94.0739 284.426 94.9545 285.369 96.0682 286.074C97.1932 286.767 98.4716 287.114 99.9034 287.114C100.983 287.114 101.989 286.903 102.92 286.483C103.852 286.051 104.665 285.466 105.358 284.727C106.063 283.977 106.614 283.131 107.011 282.188C107.409 281.233 107.608 280.239 107.608 279.205C107.608 277.841 107.278 276.562 106.619 275.369C105.972 274.176 105.074 273.21 103.926 272.472C102.79 271.733 101.494 271.364 100.04 271.364ZM132.214 297.818V296.361C132.214 295.353 132.421 294.431 132.835 293.594C133.258 292.749 133.87 292.074 134.67 291.57C135.48 291.058 136.461 290.801 137.612 290.801C138.782 290.801 139.762 291.058 140.554 291.57C141.346 292.074 141.944 292.749 142.349 293.594C142.754 294.431 142.956 295.353 142.956 296.361V297.818C142.956 298.826 142.749 299.752 142.335 300.598C141.93 301.435 141.328 302.109 140.527 302.622C139.735 303.126 138.764 303.378 137.612 303.378C136.443 303.378 135.458 303.126 134.657 302.622C133.856 302.109 133.249 301.435 132.835 300.598C132.421 299.752 132.214 298.826 132.214 297.818ZM134.967 296.361V297.818C134.967 298.655 135.165 299.406 135.561 300.072C135.957 300.728 136.641 301.057 137.612 301.057C138.557 301.057 139.223 300.728 139.609 300.072C140.005 299.406 140.203 298.655 140.203 297.818V296.361C140.203 295.524 140.014 294.777 139.636 294.121C139.259 293.455 138.584 293.122 137.612 293.122C136.668 293.122 135.988 293.455 135.575 294.121C135.17 294.777 134.967 295.524 134.967 296.361ZM118.45 282.003V280.545C118.45 279.538 118.657 278.616 119.071 277.779C119.494 276.933 120.106 276.259 120.906 275.755C121.716 275.242 122.696 274.986 123.848 274.986C125.018 274.986 125.998 275.242 126.79 275.755C127.581 276.259 128.18 276.933 128.585 277.779C128.989 278.616 129.192 279.538 129.192 280.545V282.003C129.192 283.01 128.985 283.937 128.571 284.783C128.166 285.619 127.563 286.294 126.763 286.807C125.971 287.311 125 287.562 123.848 287.562C122.679 287.562 121.693 287.311 120.893 286.807C120.092 286.294 119.485 285.619 119.071 284.783C118.657 283.937 118.45 283.01 118.45 282.003ZM121.203 280.545V282.003C121.203 282.839 121.401 283.591 121.797 284.256C122.193 284.913 122.876 285.241 123.848 285.241C124.793 285.241 125.458 284.913 125.845 284.256C126.241 283.591 126.439 282.839 126.439 282.003V280.545C126.439 279.709 126.25 278.962 125.872 278.305C125.494 277.64 124.82 277.307 123.848 277.307C122.903 277.307 122.224 277.64 121.81 278.305C121.406 278.962 121.203 279.709 121.203 280.545ZM119.476 303L138.476 275.364H141.553L122.553 303H119.476Z" fill="white"/>
<path d="M445.886 162.091V197H441.659V166.523H441.455L432.932 172.182V167.886L441.659 162.091H445.886ZM468.199 162.091V197H463.972V166.523H463.767L455.244 172.182V167.886L463.972 162.091H468.199ZM491.574 191.818V190.361C491.574 189.353 491.781 188.431 492.195 187.594C492.617 186.749 493.229 186.074 494.03 185.57C494.839 185.058 495.82 184.801 496.972 184.801C498.141 184.801 499.122 185.058 499.913 185.57C500.705 186.074 501.303 186.749 501.708 187.594C502.113 188.431 502.315 189.353 502.315 190.361V191.818C502.315 192.826 502.108 193.752 501.695 194.598C501.29 195.435 500.687 196.109 499.886 196.622C499.095 197.126 498.123 197.378 496.972 197.378C495.802 197.378 494.817 197.126 494.016 196.622C493.216 196.109 492.608 195.435 492.195 194.598C491.781 193.752 491.574 192.826 491.574 191.818ZM494.327 190.361V191.818C494.327 192.655 494.525 193.406 494.92 194.072C495.316 194.728 496 195.057 496.972 195.057C497.916 195.057 498.582 194.728 498.969 194.072C499.365 193.406 499.562 192.655 499.562 191.818V190.361C499.562 189.524 499.374 188.777 498.996 188.121C498.618 187.455 497.943 187.122 496.972 187.122C496.027 187.122 495.348 187.455 494.934 188.121C494.529 188.777 494.327 189.524 494.327 190.361ZM477.81 176.003V174.545C477.81 173.538 478.017 172.616 478.43 171.779C478.853 170.933 479.465 170.259 480.266 169.755C481.075 169.242 482.056 168.986 483.207 168.986C484.377 168.986 485.357 169.242 486.149 169.755C486.941 170.259 487.539 170.933 487.944 171.779C488.349 172.616 488.551 173.538 488.551 174.545V176.003C488.551 177.01 488.344 177.937 487.93 178.783C487.526 179.619 486.923 180.294 486.122 180.807C485.33 181.311 484.359 181.562 483.207 181.562C482.038 181.562 481.053 181.311 480.252 180.807C479.451 180.294 478.844 179.619 478.43 178.783C478.017 177.937 477.81 177.01 477.81 176.003ZM480.562 174.545V176.003C480.562 176.839 480.76 177.591 481.156 178.256C481.552 178.913 482.236 179.241 483.207 179.241C484.152 179.241 484.818 178.913 485.205 178.256C485.6 177.591 485.798 176.839 485.798 176.003V174.545C485.798 173.709 485.609 172.962 485.232 172.305C484.854 171.64 484.179 171.307 483.207 171.307C482.263 171.307 481.584 171.64 481.17 172.305C480.765 172.962 480.562 173.709 480.562 174.545ZM478.835 197L497.835 169.364H500.912L481.912 197H478.835Z" fill="white"/>
<path d="M446.614 391V387.932L458.136 375.318C459.489 373.841 460.602 372.557 461.477 371.466C462.352 370.364 463 369.33 463.42 368.364C463.852 367.386 464.068 366.364 464.068 365.295C464.068 364.068 463.773 363.006 463.182 362.108C462.602 361.21 461.807 360.517 460.795 360.028C459.784 359.54 458.648 359.295 457.386 359.295C456.045 359.295 454.875 359.574 453.875 360.131C452.886 360.676 452.119 361.443 451.574 362.432C451.04 363.42 450.773 364.58 450.773 365.909H446.75C446.75 363.864 447.222 362.068 448.165 360.523C449.108 358.977 450.392 357.773 452.017 356.909C453.653 356.045 455.489 355.614 457.523 355.614C459.568 355.614 461.381 356.045 462.96 356.909C464.54 357.773 465.778 358.937 466.676 360.403C467.574 361.869 468.023 363.5 468.023 365.295C468.023 366.58 467.79 367.835 467.324 369.062C466.869 370.278 466.074 371.636 464.938 373.136C463.812 374.625 462.25 376.443 460.25 378.591L452.409 386.977V387.25H468.636V391H446.614ZM487.949 356.091V391H483.722V360.523H483.517L474.994 366.182V361.886L483.722 356.091H487.949ZM511.324 385.818V384.361C511.324 383.353 511.531 382.431 511.945 381.594C512.367 380.749 512.979 380.074 513.78 379.57C514.589 379.058 515.57 378.801 516.722 378.801C517.891 378.801 518.872 379.058 519.663 379.57C520.455 380.074 521.053 380.749 521.458 381.594C521.863 382.431 522.065 383.353 522.065 384.361V385.818C522.065 386.826 521.858 387.752 521.445 388.598C521.04 389.435 520.437 390.109 519.636 390.622C518.845 391.126 517.873 391.378 516.722 391.378C515.552 391.378 514.567 391.126 513.766 390.622C512.966 390.109 512.358 389.435 511.945 388.598C511.531 387.752 511.324 386.826 511.324 385.818ZM514.077 384.361V385.818C514.077 386.655 514.275 387.406 514.67 388.072C515.066 388.728 515.75 389.057 516.722 389.057C517.666 389.057 518.332 388.728 518.719 388.072C519.115 387.406 519.312 386.655 519.312 385.818V384.361C519.312 383.524 519.124 382.777 518.746 382.121C518.368 381.455 517.693 381.122 516.722 381.122C515.777 381.122 515.098 381.455 514.684 382.121C514.279 382.777 514.077 383.524 514.077 384.361ZM497.56 370.003V368.545C497.56 367.538 497.767 366.616 498.18 365.779C498.603 364.933 499.215 364.259 500.016 363.755C500.825 363.242 501.806 362.986 502.957 362.986C504.127 362.986 505.107 363.242 505.899 363.755C506.691 364.259 507.289 364.933 507.694 365.779C508.099 366.616 508.301 367.538 508.301 368.545V370.003C508.301 371.01 508.094 371.937 507.68 372.783C507.276 373.619 506.673 374.294 505.872 374.807C505.08 375.311 504.109 375.562 502.957 375.562C501.788 375.562 500.803 375.311 500.002 374.807C499.201 374.294 498.594 373.619 498.18 372.783C497.767 371.937 497.56 371.01 497.56 370.003ZM500.312 368.545V370.003C500.312 370.839 500.51 371.591 500.906 372.256C501.302 372.913 501.986 373.241 502.957 373.241C503.902 373.241 504.568 372.913 504.955 372.256C505.35 371.591 505.548 370.839 505.548 370.003V368.545C505.548 367.709 505.359 366.962 504.982 366.305C504.604 365.64 503.929 365.307 502.957 365.307C502.013 365.307 501.334 365.64 500.92 366.305C500.515 366.962 500.312 367.709 500.312 368.545ZM498.585 391L517.585 363.364H520.662L501.662 391H498.585Z" fill="white"/>
<path d="M323.727 463.614C325.159 463.625 326.591 463.898 328.023 464.432C329.455 464.966 330.761 465.852 331.943 467.091C333.125 468.318 334.074 469.994 334.79 472.119C335.506 474.244 335.864 476.909 335.864 480.114C335.864 483.216 335.568 485.972 334.977 488.381C334.398 490.778 333.557 492.801 332.455 494.449C331.364 496.097 330.034 497.347 328.466 498.199C326.909 499.051 325.148 499.477 323.182 499.477C321.227 499.477 319.483 499.091 317.949 498.318C316.426 497.534 315.176 496.449 314.199 495.062C313.233 493.665 312.614 492.045 312.341 490.205H316.5C316.875 491.807 317.619 493.131 318.733 494.176C319.858 495.21 321.341 495.727 323.182 495.727C325.875 495.727 328 494.551 329.557 492.199C331.125 489.847 331.909 486.523 331.909 482.227H331.636C331 483.182 330.244 484.006 329.369 484.699C328.494 485.392 327.523 485.926 326.455 486.301C325.386 486.676 324.25 486.864 323.045 486.864C321.045 486.864 319.21 486.369 317.54 485.381C315.881 484.381 314.551 483.011 313.551 481.273C312.562 479.523 312.068 477.523 312.068 475.273C312.068 473.136 312.545 471.182 313.5 469.409C314.466 467.625 315.818 466.205 317.557 465.148C319.307 464.091 321.364 463.58 323.727 463.614ZM323.727 467.364C322.295 467.364 321.006 467.722 319.858 468.438C318.722 469.142 317.818 470.097 317.148 471.301C316.489 472.494 316.159 473.818 316.159 475.273C316.159 476.727 316.477 478.051 317.114 479.244C317.761 480.426 318.642 481.369 319.756 482.074C320.881 482.767 322.159 483.114 323.591 483.114C324.67 483.114 325.676 482.903 326.608 482.483C327.54 482.051 328.352 481.466 329.045 480.727C329.75 479.977 330.301 479.131 330.699 478.188C331.097 477.233 331.295 476.239 331.295 475.205C331.295 473.841 330.966 472.562 330.307 471.369C329.659 470.176 328.761 469.21 327.614 468.472C326.477 467.733 325.182 467.364 323.727 467.364ZM355.902 493.818V492.361C355.902 491.353 356.109 490.431 356.523 489.594C356.946 488.749 357.557 488.074 358.358 487.57C359.168 487.058 360.148 486.801 361.3 486.801C362.469 486.801 363.45 487.058 364.241 487.57C365.033 488.074 365.631 488.749 366.036 489.594C366.441 490.431 366.643 491.353 366.643 492.361V493.818C366.643 494.826 366.437 495.752 366.023 496.598C365.618 497.435 365.015 498.109 364.214 498.622C363.423 499.126 362.451 499.378 361.3 499.378C360.13 499.378 359.145 499.126 358.344 498.622C357.544 498.109 356.937 497.435 356.523 496.598C356.109 495.752 355.902 494.826 355.902 493.818ZM358.655 492.361V493.818C358.655 494.655 358.853 495.406 359.249 496.072C359.644 496.728 360.328 497.057 361.3 497.057C362.244 497.057 362.91 496.728 363.297 496.072C363.693 495.406 363.891 494.655 363.891 493.818V492.361C363.891 491.524 363.702 490.777 363.324 490.121C362.946 489.455 362.271 489.122 361.3 489.122C360.355 489.122 359.676 489.455 359.262 490.121C358.857 490.777 358.655 491.524 358.655 492.361ZM342.138 478.003V476.545C342.138 475.538 342.345 474.616 342.759 473.779C343.181 472.933 343.793 472.259 344.594 471.755C345.403 471.242 346.384 470.986 347.536 470.986C348.705 470.986 349.686 471.242 350.477 471.755C351.269 472.259 351.867 472.933 352.272 473.779C352.677 474.616 352.879 475.538 352.879 476.545V478.003C352.879 479.01 352.672 479.937 352.259 480.783C351.854 481.619 351.251 482.294 350.45 482.807C349.659 483.311 348.687 483.562 347.536 483.562C346.366 483.562 345.381 483.311 344.58 482.807C343.78 482.294 343.172 481.619 342.759 480.783C342.345 479.937 342.138 479.01 342.138 478.003ZM344.891 476.545V478.003C344.891 478.839 345.089 479.591 345.484 480.256C345.88 480.913 346.564 481.241 347.536 481.241C348.48 481.241 349.146 480.913 349.533 480.256C349.929 479.591 350.126 478.839 350.126 478.003V476.545C350.126 475.709 349.938 474.962 349.56 474.305C349.182 473.64 348.507 473.307 347.536 473.307C346.591 473.307 345.912 473.64 345.498 474.305C345.093 474.962 344.891 475.709 344.891 476.545ZM343.163 499L362.163 471.364H365.24L346.24 499H343.163Z" fill="white"/>
<path d="M146.886 435.091V470H142.659V439.523H142.455L133.932 445.182V440.886L142.659 435.091H146.886ZM168.517 470.477C167.085 470.455 165.653 470.182 164.222 469.659C162.79 469.136 161.483 468.256 160.301 467.017C159.119 465.767 158.17 464.08 157.455 461.955C156.739 459.818 156.381 457.136 156.381 453.909C156.381 450.818 156.67 448.08 157.25 445.693C157.83 443.295 158.67 441.278 159.773 439.642C160.875 437.994 162.205 436.744 163.761 435.892C165.33 435.04 167.097 434.614 169.062 434.614C171.017 434.614 172.756 435.006 174.278 435.79C175.813 436.562 177.063 437.642 178.028 439.028C178.994 440.415 179.619 442.011 179.903 443.818H175.744C175.358 442.25 174.608 440.949 173.494 439.915C172.381 438.881 170.903 438.364 169.062 438.364C166.358 438.364 164.227 439.54 162.67 441.892C161.125 444.244 160.347 447.545 160.335 451.795H160.608C161.244 450.83 162 450.006 162.875 449.324C163.761 448.631 164.739 448.097 165.807 447.722C166.875 447.347 168.006 447.159 169.199 447.159C171.199 447.159 173.028 447.659 174.688 448.659C176.347 449.648 177.676 451.017 178.676 452.767C179.676 454.506 180.176 456.5 180.176 458.75C180.176 460.909 179.693 462.886 178.727 464.682C177.761 466.466 176.403 467.886 174.653 468.943C172.915 469.989 170.869 470.5 168.517 470.477ZM168.517 466.727C169.949 466.727 171.233 466.369 172.369 465.653C173.517 464.937 174.42 463.977 175.08 462.773C175.75 461.568 176.085 460.227 176.085 458.75C176.085 457.307 175.761 455.994 175.114 454.812C174.477 453.619 173.597 452.67 172.472 451.966C171.358 451.261 170.085 450.909 168.653 450.909C167.574 450.909 166.568 451.125 165.636 451.557C164.705 451.977 163.886 452.557 163.182 453.295C162.489 454.034 161.943 454.881 161.545 455.835C161.148 456.778 160.949 457.773 160.949 458.818C160.949 460.205 161.273 461.5 161.92 462.705C162.58 463.909 163.477 464.881 164.614 465.619C165.761 466.358 167.062 466.727 168.517 466.727ZM200.214 464.818V463.361C200.214 462.353 200.421 461.431 200.835 460.594C201.258 459.749 201.87 459.074 202.67 458.57C203.48 458.058 204.461 457.801 205.612 457.801C206.782 457.801 207.762 458.058 208.554 458.57C209.346 459.074 209.944 459.749 210.349 460.594C210.754 461.431 210.956 462.353 210.956 463.361V464.818C210.956 465.826 210.749 466.752 210.335 467.598C209.93 468.435 209.328 469.109 208.527 469.622C207.735 470.126 206.764 470.378 205.612 470.378C204.443 470.378 203.458 470.126 202.657 469.622C201.856 469.109 201.249 468.435 200.835 467.598C200.421 466.752 200.214 465.826 200.214 464.818ZM202.967 463.361V464.818C202.967 465.655 203.165 466.406 203.561 467.072C203.957 467.728 204.641 468.057 205.612 468.057C206.557 468.057 207.223 467.728 207.609 467.072C208.005 466.406 208.203 465.655 208.203 464.818V463.361C208.203 462.524 208.014 461.777 207.636 461.121C207.259 460.455 206.584 460.122 205.612 460.122C204.668 460.122 203.988 460.455 203.575 461.121C203.17 461.777 202.967 462.524 202.967 463.361ZM186.45 449.003V447.545C186.45 446.538 186.657 445.616 187.071 444.779C187.494 443.933 188.106 443.259 188.906 442.755C189.716 442.242 190.696 441.986 191.848 441.986C193.018 441.986 193.998 442.242 194.79 442.755C195.581 443.259 196.18 443.933 196.585 444.779C196.989 445.616 197.192 446.538 197.192 447.545V449.003C197.192 450.01 196.985 450.937 196.571 451.783C196.166 452.619 195.563 453.294 194.763 453.807C193.971 454.311 193 454.562 191.848 454.562C190.679 454.562 189.693 454.311 188.893 453.807C188.092 453.294 187.485 452.619 187.071 451.783C186.657 450.937 186.45 450.01 186.45 449.003ZM189.203 447.545V449.003C189.203 449.839 189.401 450.591 189.797 451.256C190.193 451.913 190.876 452.241 191.848 452.241C192.793 452.241 193.458 451.913 193.845 451.256C194.241 450.591 194.439 449.839 194.439 449.003V447.545C194.439 446.709 194.25 445.962 193.872 445.305C193.494 444.64 192.82 444.307 191.848 444.307C190.903 444.307 190.224 444.64 189.81 445.305C189.406 445.962 189.203 446.709 189.203 447.545ZM187.476 470L206.476 442.364H209.553L190.553 470H187.476Z" fill="white"/>
</svg>
