<svg width="108" height="111" viewBox="0 0 108 111" fill="none" xmlns="http://www.w3.org/2000/svg">
<g clip-path="url(#clip0_464_4327)">
<path d="M98.2724 60.4007L107.184 50.1005H96.751L93.123 54.3651L89.3613 50.1005H69.5162V47.3492H78.8954V39.0781H53.6166V52.0608H53.533C51.928 50.1693 49.9385 49.5159 47.6146 49.5159C42.8665 49.5159 39.2887 52.8518 38.0348 57.2367C35.0254 47.0225 21.7507 47.332 17.6546 54.8294V50.668H8.49272V46.1627H18.524V39.0953H0.300537V70.8041H8.49272V57.4775H16.6682C16.4174 58.4576 16.2837 59.5066 16.2837 60.6071C16.2837 73.1771 33.4371 76.3239 38.0515 64.6825H31.0296C28.5719 68.2764 23.3724 66.2129 23.3724 62.1719H37.6669C38.2855 67.4166 42.2479 71.9562 47.7149 71.9562C50.0723 71.9562 52.229 70.7697 53.5498 68.7578H53.6334V70.8041H89.1105L92.8054 66.5052L96.5337 70.8041H107.301L98.2724 60.4007ZM23.5898 57.5463C24.6096 53.0238 30.5615 53.1442 31.364 57.5463H23.5898ZM49.2363 65.9549C43.4516 65.9549 43.5519 55.1561 49.2363 55.1561C54.6866 55.1561 55.0043 65.9549 49.2363 65.9549ZM77.2904 69.2393H61.5079V40.6085H77.3907V45.8016H68.0115V51.631H77.2904V56.4629H67.9112V64.1494H77.2904V69.2393ZM69.6165 62.3954V58.1997H78.9957V50.6336L87.4721 60.4351L78.9957 70.2367V62.3954H69.6165ZM92.7887 64.1666L88.4251 69.2393H82.0552L89.679 60.4351L82.0552 51.631H88.6926L93.1398 56.6693L97.4198 51.631H103.856L96.2662 60.4007L103.957 69.2393H97.1857L92.7887 64.1666Z" fill="black"/>
</g>
<defs>
<clipPath id="clip0_464_4327">
<rect width="107" height="110.052" fill="white" transform="translate(0.300537 0.473633)"/>
</clipPath>
</defs>
</svg>
