<svg width="792" height="332" viewBox="0 0 792 332" fill="none" xmlns="http://www.w3.org/2000/svg">
<path d="M106 278.5L236 0H249.5L333.5 278.5H283L240.5 27.5L169.5 278.5H106Z" fill="#3864FF"/>
<path d="M367.781 279V119H471.844V143.297H396.766V186.734H466.453V211.031H396.766V254.703H472.469V279H367.781ZM588.367 162.984C587.638 156.161 584.565 150.849 579.148 147.047C573.784 143.245 566.805 141.344 558.211 141.344C552.169 141.344 546.987 142.255 542.664 144.078C538.341 145.901 535.034 148.375 532.742 151.5C530.451 154.625 529.279 158.193 529.227 162.203C529.227 165.536 529.982 168.427 531.492 170.875C533.055 173.323 535.164 175.406 537.82 177.125C540.477 178.792 543.419 180.198 546.648 181.344C549.878 182.49 553.133 183.453 556.414 184.234L571.414 187.984C577.456 189.391 583.263 191.292 588.836 193.687C594.461 196.083 599.487 199.104 603.914 202.75C608.393 206.396 611.935 210.797 614.539 215.953C617.143 221.109 618.445 227.151 618.445 234.078C618.445 243.453 616.049 251.708 611.258 258.844C606.466 265.927 599.539 271.474 590.477 275.484C581.466 279.443 570.555 281.422 557.742 281.422C545.294 281.422 534.487 279.495 525.32 275.641C516.206 271.786 509.07 266.161 503.914 258.766C498.81 251.37 496.049 242.359 495.633 231.734H524.148C524.565 237.307 526.284 241.943 529.305 245.641C532.326 249.339 536.258 252.099 541.102 253.922C545.997 255.745 551.466 256.656 557.508 256.656C563.81 256.656 569.331 255.719 574.07 253.844C578.862 251.917 582.612 249.26 585.32 245.875C588.029 242.437 589.409 238.427 589.461 233.844C589.409 229.677 588.185 226.24 585.789 223.531C583.393 220.771 580.034 218.479 575.711 216.656C571.44 214.781 566.44 213.115 560.711 211.656L542.508 206.969C529.331 203.583 518.914 198.453 511.258 191.578C503.654 184.651 499.852 175.458 499.852 164C499.852 154.573 502.404 146.318 507.508 139.234C512.664 132.151 519.669 126.656 528.523 122.75C537.378 118.792 547.404 116.812 558.602 116.812C569.956 116.812 579.904 118.792 588.445 122.75C597.039 126.656 603.784 132.099 608.68 139.078C613.576 146.005 616.102 153.974 616.258 162.984H588.367ZM781.238 172.984H752.02C751.186 168.193 749.65 163.948 747.41 160.25C745.171 156.5 742.384 153.323 739.051 150.719C735.717 148.115 731.915 146.161 727.645 144.859C723.426 143.505 718.868 142.828 713.973 142.828C705.275 142.828 697.566 145.016 690.848 149.391C684.129 153.714 678.868 160.068 675.066 168.453C671.264 176.786 669.363 186.969 669.363 199C669.363 211.24 671.264 221.552 675.066 229.937C678.921 238.271 684.181 244.573 690.848 248.844C697.566 253.062 705.249 255.172 713.895 255.172C718.686 255.172 723.165 254.547 727.332 253.297C731.551 251.995 735.327 250.094 738.66 247.594C742.046 245.094 744.884 242.021 747.176 238.375C749.52 234.729 751.134 230.562 752.02 225.875L781.238 226.031C780.145 233.635 777.775 240.771 774.129 247.438C770.535 254.104 765.822 259.99 759.988 265.094C754.155 270.146 747.332 274.104 739.52 276.969C731.707 279.781 723.035 281.187 713.504 281.187C699.441 281.187 686.889 277.932 675.848 271.422C664.806 264.911 656.108 255.51 649.754 243.219C643.4 230.927 640.223 216.187 640.223 199C640.223 181.76 643.426 167.021 649.832 154.781C656.238 142.49 664.962 133.089 676.004 126.578C687.046 120.068 699.546 116.812 713.504 116.812C722.41 116.812 730.691 118.062 738.348 120.562C746.004 123.062 752.827 126.734 758.816 131.578C764.806 136.37 769.728 142.255 773.582 149.234C777.488 156.161 780.04 164.078 781.238 172.984Z" fill="#3864FF"/>
<path d="M391 188.656C283.785 207.153 136.327 141.259 76 106C213.913 204.494 343.464 215.245 391 208.309V188.656Z" fill="#3864FF" stroke="#3864FF"/>
<path d="M21.8844 74.6309C18.7256 72.2743 15.2282 65.4959 17.64 62.2632C20.1206 58.9381 27.5455 60.4518 30.7043 62.8084L36.828 67.3769L60.0245 59.1201C61.1827 58.7047 62.4716 58.9042 63.4598 59.6415L68.6968 63.5485C69.7036 64.2995 69.6775 65.8184 68.6468 66.5447L51.6061 78.4019L58.9951 83.9144L66.9542 81.571C67.5069 81.4083 68.1156 81.5173 68.5774 81.8619L72.4567 84.7559C73.1771 85.2934 73.3157 86.3025 72.7851 87.0137C72.6955 87.1338 72.5874 87.24 72.4702 87.3394L61.9742 95.3381L57.297 107.678C57.2444 107.825 57.1641 107.952 57.0745 108.072C56.537 108.793 55.5279 108.931 54.8167 108.401L50.9375 105.507C50.4757 105.162 50.1977 104.61 50.1962 104.034L50.1751 95.7368L42.7861 90.2243L36.2748 109.937C35.8722 111.132 34.4237 111.589 33.4169 110.838L28.1799 106.931C27.1917 106.194 26.6332 105.015 26.7015 103.787L28.008 79.1994L21.8844 74.6309Z" fill="#3864FF"/>
<path d="M239 74L237.729 88.2642" stroke="#3864FF" stroke-width="3" stroke-linecap="round"/>
<path d="M236.664 100.217L235.393 114.481" stroke="#3864FF" stroke-width="3" stroke-linecap="round"/>
<path d="M234.328 126.434L233.057 140.698" stroke="#3864FF" stroke-width="3" stroke-linecap="round"/>
<path d="M231.992 152.651L230.721 166.915" stroke="#3864FF" stroke-width="3" stroke-linecap="round"/>
<path d="M229.656 178.867L228.386 193.132" stroke="#3864FF" stroke-width="3" stroke-linecap="round"/>
<path d="M227.321 205.084L226.05 219.348" stroke="#3864FF" stroke-width="3" stroke-linecap="round"/>
<path d="M224.985 231.301L223.714 245.565" stroke="#3864FF" stroke-width="3" stroke-linecap="round"/>
<path d="M222.649 257.518L221.378 271.782" stroke="#3864FF" stroke-width="3" stroke-linecap="round"/>
</svg>
